<svg xmlns="http://www.w3.org/2000/svg" width="32.991" height="30.081" viewBox="0 0 32.991 30.081">
  <path id="heart-64" d="M44.309,27.591a9.336,9.336,0,0,0-12.633-.579,1.941,1.941,0,0,1-1.116.4,1.86,1.86,0,0,1-1.121-.4A9.382,9.382,0,0,0,16.778,40.825L27.665,53.572a3.806,3.806,0,0,0,5.789,0l10.853-12.71A9.4,9.4,0,0,0,44.309,27.591ZM43.378,40,32.49,52.748a2.539,2.539,0,0,1-3.86,0L17.709,39.965a8.113,8.113,0,0,1,10.9-12,3.077,3.077,0,0,0,1.95.713,3.158,3.158,0,0,0,1.932-.7A8.115,8.115,0,0,1,43.378,40Z" transform="translate(-14.063 -24.826)" fill="#fff"/>
</svg>
